<svg width="24" height="28" viewBox="0 0 24 28" fill="none" xmlns="http://www.w3.org/2000/svg">
<path d="M16.8728 4.61328C18.2087 3.27734 19.1345 2.60938 19.6501 2.60938C19.6736 2.60938 19.697 2.60938 19.7205 2.60938C20.7986 2.77344 20.5291 3.74609 18.9119 5.52734C17.9978 6.53516 16.7439 7.70703 15.1501 9.04297C14.6814 9.44141 14.2478 9.82812 13.8494 10.2031C13.4275 10.5781 13.1111 10.8828 12.9001 11.1172C12.7126 11.3516 12.6306 11.4805 12.6541 11.5039C13.3572 12.1602 14.3533 12.9102 15.6423 13.7539C16.908 14.6211 17.8572 15.1836 18.49 15.4414C19.6384 15.957 20.3298 16.3438 20.5642 16.6016C20.8689 16.8594 21.033 17.1641 21.0564 17.5156C21.0564 17.5391 21.0564 17.5625 21.0564 17.5859C21.0564 17.9141 20.9041 18.1602 20.5994 18.3242C20.5056 18.3711 20.3884 18.3945 20.2478 18.3945C19.8259 18.3945 19.1697 18.207 18.2791 17.832C17.0603 17.3164 15.9236 16.6719 14.8689 15.8984C12.7595 14.4453 11.6345 13.6719 11.4939 13.5781C10.2048 12.7344 9.57202 11.9961 9.59546 11.3633C9.59546 11.1758 9.64233 11 9.73608 10.8359C10.2517 10.25 11.4353 9.19531 13.2869 7.67188C15.115 6.14844 16.3103 5.12891 16.8728 4.61328Z" fill="#FC6262"/>
<path d="M7.83984 4.61328C9.17578 3.27734 10.1016 2.60938 10.6172 2.60938C10.6406 2.60938 10.6641 2.60938 10.6875 2.60938C11.7656 2.77344 11.4961 3.74609 9.87891 5.52734C8.96484 6.53516 7.71094 7.70703 6.11719 9.04297C5.64844 9.44141 5.21484 9.82812 4.81641 10.2031C4.39453 10.5781 4.07812 10.8828 3.86719 11.1172C3.67969 11.3516 3.59766 11.4805 3.62109 11.5039C4.32422 12.1602 5.32031 12.9102 6.60938 13.7539C7.875 14.6211 8.82422 15.1836 9.45703 15.4414C10.6055 15.957 11.2969 16.3438 11.5312 16.6016C11.8359 16.8594 12 17.1641 12.0234 17.5156C12.0234 17.5391 12.0234 17.5625 12.0234 17.5859C12.0234 17.9141 11.8711 18.1602 11.5664 18.3242C11.4727 18.3711 11.3555 18.3945 11.2148 18.3945C10.793 18.3945 10.1367 18.207 9.24609 17.832C8.02734 17.3164 6.89062 16.6719 5.83594 15.8984C3.72656 14.4453 2.60156 13.6719 2.46094 13.5781C1.17187 12.7344 0.539062 11.9961 0.5625 11.3633C0.5625 11.1758 0.609375 11 0.703125 10.8359C1.21875 10.25 2.40234 9.19531 4.25391 7.67188C6.08203 6.14844 7.27734 5.12891 7.83984 4.61328Z" fill="#FC6262"/>
</svg>
