<svg width="254" height="281" viewBox="0 0 254 281" fill="none" xmlns="http://www.w3.org/2000/svg">
<path d="M17.503 0H192.52C202.181 0 210.022 7.832 210.022 17.502V262.526C210.022 272.738 202.312 280.028 192.52 280.028C184.329 280.028 122.251 241.218 113.762 236.274C105.265 231.33 105.134 231.041 96.26 236.274C87.387 241.533 25.851 280.028 17.502 280.028C7.587 280.028 0 273.001 0 262.526V17.502C0.001 7.832 7.842 0 17.503 0Z" fill="#E2574C"/>
<path d="M192.52 0H105.011V232.466C107.269 232.448 109.43 233.744 113.762 236.273C122.215 241.2 183.848 279.721 192.38 280.001H192.791C202.452 279.861 210.021 272.642 210.021 262.526V17.502C210.022 7.832 202.181 0 192.52 0Z" fill="#CB4E44"/>
<path d="M175.045 105.395L129.007 101.991L105.012 52.505L80.746 101.991L34.988 105.395L65.616 143.592L56.865 192.492L105.012 169.985L153.159 192.492L144.251 143.592C144.25 143.593 175.045 105.395 175.045 105.395Z" fill="#EFC75E"/>
<path d="M153.159 192.501L144.25 143.602L175.045 105.395L129.006 101.991L105.012 52.505V170.003L153.159 192.501Z" fill="#D7B354"/>
<path d="M206 263C232.51 263 254 241.51 254 215C254 188.49 232.51 167 206 167C179.49 167 158 188.49 158 215C158 241.51 179.49 263 206 263Z" fill="#71C386"/>
<path d="M220.036 212H207.714V200.75C207.714 199.508 206.61 198.5 205.25 198.5C203.89 198.5 202.786 199.508 202.786 200.75V212H190.464C189.104 212 188 213.008 188 214.25C188 215.492 189.104 216.5 190.464 216.5H202.786V227.75C202.786 228.992 203.89 230 205.25 230C206.61 230 207.714 228.992 207.714 227.75V216.5H220.036C221.396 216.5 222.5 215.492 222.5 214.25C222.5 213.008 221.396 212 220.036 212Z" fill="white"/>
</svg>
