<svg width="26" height="28" viewBox="0 0 26 28" fill="none" xmlns="http://www.w3.org/2000/svg">
<path d="M2.81079 18.8867C2.34204 18.8867 1.97876 18.7578 1.72095 18.5C1.53345 18.3594 1.4397 18.2188 1.4397 18.0781C1.4397 17.9844 1.47485 17.8906 1.54517 17.7969C1.61548 17.7031 2.78735 17.0586 5.06079 15.8633C6.72485 15.043 8.24829 14.1992 9.6311 13.332C11.0139 12.4648 11.7053 11.9375 11.7053 11.75C11.7053 11.4219 11.2131 10.8359 10.2288 9.99219C9.26782 9.14844 7.96704 8.17578 6.32642 7.07422C3.84204 5.41016 2.57642 4.37891 2.52954 3.98047C2.48267 3.55859 2.59985 3.34766 2.8811 3.34766C3.30298 3.37109 4.49829 3.89844 6.46704 4.92969C8.43579 5.96094 9.90063 6.83984 10.8616 7.56641C11.8225 8.26953 12.6428 9.04297 13.3225 9.88672C14.0022 10.7305 14.342 11.4219 14.342 11.9609C14.342 11.9844 14.342 12.0195 14.342 12.0664C14.2952 12.6055 13.9202 13.1914 13.217 13.8242C11.9514 14.9258 10.1233 16.0391 7.73267 17.1641C5.34204 18.3125 3.70142 18.8867 2.81079 18.8867Z" fill="#FC6262"/>
<path d="M13.2148 18.8867C12.7461 18.8867 12.3828 18.7578 12.125 18.5C11.9375 18.3594 11.8438 18.2188 11.8438 18.0781C11.8438 17.9844 11.8789 17.8906 11.9492 17.7969C12.0195 17.7031 13.1914 17.0586 15.4648 15.8633C17.1289 15.043 18.6523 14.1992 20.0352 13.332C21.418 12.4648 22.1094 11.9375 22.1094 11.75C22.1094 11.4219 21.6172 10.8359 20.6328 9.99219C19.6719 9.14844 18.3711 8.17578 16.7305 7.07422C14.2461 5.41016 12.9805 4.37891 12.9336 3.98047C12.8867 3.55859 13.0039 3.34766 13.2852 3.34766C13.707 3.37109 14.9023 3.89844 16.8711 4.92969C18.8398 5.96094 20.3047 6.83984 21.2656 7.56641C22.2266 8.26953 23.0469 9.04297 23.7266 9.88672C24.4062 10.7305 24.7461 11.4219 24.7461 11.9609C24.7461 11.9844 24.7461 12.0195 24.7461 12.0664C24.6992 12.6055 24.3242 13.1914 23.6211 13.8242C22.3555 14.9258 20.5273 16.0391 18.1367 17.1641C15.7461 18.3125 14.1055 18.8867 13.2148 18.8867Z" fill="#FC6262"/>
</svg>
