<?xml version="1.0" encoding="utf-8"?>
<!-- Generator: Adobe Illustrator 23.0.1, SVG Export Plug-In . SVG Version: 6.00 Build 0)  -->
<svg version="1.1" id="Layer_1" xmlns="http://www.w3.org/2000/svg" xmlns:xlink="http://www.w3.org/1999/xlink" x="0px" y="0px"
	 viewBox="0 0 1024 1024" style="enable-background:new 0 0 1024 1024;" xml:space="preserve">
<style type="text/css">
	
</style>
<rect class="st0" width="1024" height="1024"/>
<path
fill="black"
 d="M963.95,291.7c0-0.13-0.01-0.26-0.02-0.38c-0.07-1.01-0.27-2-0.59-2.95c-0.04-0.12-0.08-0.23-0.12-0.34
	c-0.17-0.46-0.36-0.9-0.59-1.34c-0.01-0.02-0.02-0.04-0.03-0.05c-0.24-0.45-0.51-0.87-0.81-1.28c-0.07-0.1-0.15-0.2-0.23-0.31
	c-0.31-0.41-0.64-0.81-1.01-1.17L680.1,3.41c-0.36-0.36-0.76-0.69-1.16-1c-0.11-0.09-0.22-0.17-0.34-0.25
	c-0.4-0.29-0.81-0.55-1.25-0.78c-0.05-0.03-0.1-0.05-0.15-0.07c-0.4-0.21-0.81-0.38-1.23-0.54c-0.13-0.05-0.26-0.1-0.39-0.14
	c-0.47-0.16-0.94-0.3-1.43-0.39c-0.01,0-0.03,0-0.05-0.01c-0.48-0.09-0.96-0.15-1.45-0.18c-0.13-0.01-0.26-0.01-0.39-0.02
	c-0.13,0-0.26-0.02-0.39-0.02H253.82c-62.97,0-114.19,51.23-114.19,114.2v360.56H71.66c-4.32,0-8.29,2.4-10.3,6.23
	c-2.01,3.83-1.73,8.46,0.73,12.02l75.02,108.43L62.09,709.87c-2.46,3.56-2.75,8.19-0.73,12.02c2.01,3.83,5.98,6.23,10.3,6.23h67.97
	v181.68c0,62.97,51.23,114.19,114.19,114.19h595.96c62.97,0,114.19-51.23,114.19-114.19V292.1
	C963.97,291.97,963.96,291.83,963.95,291.7z M206.86,728.12h351.07c31.51,0,57.14-25.63,57.14-57.14V531.9
	c0-31.51-25.64-57.14-57.14-57.14H206.86V114.2c0-25.89,21.07-46.96,46.97-46.96h406.42v140.74c0,52.8,42.96,95.76,95.75,95.76
	h140.75v606.08c0,25.89-21.07,46.96-46.96,46.96H253.83c-25.9,0-46.97-21.07-46.97-46.96V728.12z M756,280.47
	c-39.97,0-72.49-32.52-72.49-72.49V39.72l240.75,240.75H756z M162.9,114.2c0-50.14,40.79-90.93,90.93-90.93h406.42v20.7H253.83
	c-38.73,0-70.24,31.51-70.24,70.23v360.56h-20.7V114.2z M93.86,704.86l66.97-96.8c2.76-3.98,2.76-9.25,0-13.24l-66.97-96.8h464.07
	c18.68,0,33.88,15.2,33.88,33.88v139.08c0,18.68-15.2,33.87-33.88,33.87H93.86z M849.78,1000.73H253.82
	c-50.14,0-90.93-40.79-90.93-90.93V728.12h20.7v181.68c0,38.72,31.51,70.23,70.24,70.23h595.95c38.72,0,70.23-31.5,70.23-70.23
	V303.73h20.7v606.08C940.71,959.94,899.92,1000.73,849.78,1000.73z"/>
</svg>
